<?xml version="1.0" standalone="no"?>
<!DOCTYPE svg PUBLIC "-//W3C//DTD SVG 20010904//EN"
 "http://www.w3.org/TR/2001/REC-SVG-20010904/DTD/svg10.dtd">
<svg version="1.0" xmlns="http://www.w3.org/2000/svg"
 width="287.000000pt" height="287.000000pt" viewBox="0 0 287.000000 287.000000"
 preserveAspectRatio="xMidYMid meet">
<metadata>
Created by potrace 1.11, written by Peter Selinger 2001-2013
</metadata>
<g transform="translate(0.000000,287.000000) scale(0.100000,-0.100000)"
fill="#000000" stroke="none">
<path d="M1649 2751 c-46 -26 -127 -72 -179 -103 -97 -56 -170 -96 -320 -176
-47 -24 -94 -50 -106 -57 -22 -14 -186 -65 -269 -83 -68 -16 -310 -32 -481
-32 -124 0 -143 -2 -157 -18 -22 -24 -23 -23 19 -105 44 -87 124 -291 124
-315 0 -10 4 -22 8 -27 12 -14 55 -123 93 -234 17 -52 38 -106 45 -120 26 -49
21 -53 -58 -48 -84 5 -107 -3 -218 -84 -70 -51 -95 -94 -72 -122 6 -7 13 -30
17 -52 4 -22 11 -44 15 -50 7 -9 65 -170 127 -350 31 -90 71 -235 134 -490 11
-44 30 -111 42 -150 21 -68 23 -70 57 -73 36 -4 142 20 195 43 17 7 49 21 73
30 23 10 42 21 42 25 0 5 17 19 38 31 49 30 82 67 89 102 8 39 21 43 51 14 15
-13 36 -29 47 -34 71 -35 221 -12 265 42 9 11 28 16 64 15 76 -2 264 50 292
81 9 10 22 19 28 19 6 0 28 11 48 25 21 14 51 25 70 25 18 0 58 7 88 16 30 8
86 24 123 34 37 10 79 26 94 35 19 13 39 16 76 12 32 -3 68 1 96 11 45 15 57
25 95 78 20 28 9 27 149 8 36 -5 55 0 119 31 42 20 83 47 93 61 9 14 36 45 60
69 54 56 72 119 54 204 -35 178 -45 203 -108 269 -46 48 -54 81 -40 177 11 78
6 98 -31 140 -10 11 -29 40 -43 65 -31 57 -85 77 -195 73 -67 -2 -77 0 -104
22 -43 36 -71 40 -167 21 -103 -19 -97 -19 -99 -3 0 6 -8 37 -16 67 -9 30 -16
66 -16 80 -1 25 -26 130 -93 375 -19 72 -49 193 -67 270 -40 175 -42 180 -78
193 -26 9 -39 5 -113 -37z"/>
</g>
</svg>
